<svg width="194" height="44" viewBox="0 0 194 44" fill="none" xmlns="http://www.w3.org/2000/svg">
<g clip-path="url(#clip0_308_238)">
<path d="M73.9969 6.86035C80.3285 6.86035 83.7958 9.72512 83.7958 14.952C83.7958 19.0229 81.7858 21.4857 77.8663 22.2898C82.3889 23.496 84.3486 26.0089 84.3486 30.6327C84.3486 36.9653 80.3787 40.3828 72.9919 40.3828H65.1025V6.86035H73.9969ZM72.9919 20.2794C75.5045 20.2794 77.2632 18.5706 77.2632 16.0576C77.2632 13.595 75.5044 11.8862 72.9919 11.8862H71.6352V20.2794H72.9919ZM72.9919 35.2062C75.9064 35.2062 77.6652 33.3466 77.6652 30.2305C77.6652 27.1145 75.9064 25.3052 72.9919 25.3052H71.6352V35.2062H72.9919Z" fill="#585858"/>
<path d="M103.493 40.3831H97.5636V35.8598C96.3576 39.5286 94.8501 41.0363 92.438 41.0363C88.418 41.0363 86.1064 36.3121 86.1064 28.0194C86.1064 23.7976 86.8099 19.8775 87.9154 17.9677C89.021 16.0075 90.5284 14.9521 92.237 14.9521C94.4983 14.9521 96.2069 16.6107 97.5636 20.1287V15.6054H103.493V40.3831ZM92.4883 28.0698C92.4883 33.0454 93.2922 35.3572 94.9505 35.3572C96.7093 35.3572 97.5635 32.9951 97.5635 28.12C97.5635 23.1443 96.7092 20.7822 94.9505 20.7822C93.2922 20.7822 92.4883 23.0941 92.4883 28.0697V28.0698Z" fill="#585858"/>
<path d="M112.537 15.6055V19.1739C113.744 16.2086 115.452 14.9521 118.266 14.9521C120.879 14.9521 122.186 16.1584 122.939 19.1739C124.397 16.1082 126.005 14.9521 128.668 14.9521C130.628 14.9521 132.236 15.9573 132.839 17.5153C133.241 18.5205 133.291 19.0734 133.291 21.4858V40.383H127.11V23.7976C127.11 21.4355 126.507 20.4805 125.15 20.4805C123.693 20.4805 122.99 21.5359 122.99 23.7976V40.383H116.809V23.3453C116.809 21.3852 116.155 20.4303 114.899 20.4303C114.196 20.4303 113.492 20.7821 113.14 21.335C112.839 21.8376 112.738 22.4407 112.738 23.7976V40.383H106.558V15.6055H112.537Z" fill="#585858"/>
<path d="M142.888 6.86035V19.7768C144.395 16.309 145.802 14.952 147.913 14.952C149.873 14.952 151.631 16.309 152.687 18.7214C153.491 20.5307 154.094 24.4007 154.094 28.0192C154.094 36.2616 151.782 41.0362 147.812 41.0362C145.35 41.0362 144.044 39.6793 142.637 35.8596V40.3829H136.707V6.86035H142.888H142.888ZM142.637 28.0192C142.637 32.9949 143.491 35.357 145.249 35.357C146.908 35.357 147.712 33.0451 147.712 28.0695C147.712 23.094 146.908 20.7821 145.249 20.7821C143.491 20.7821 142.637 23.1442 142.637 28.0193V28.0192Z" fill="#585858"/>
<path d="M173.943 28.1702C173.943 36.3121 170.626 41.0363 164.898 41.0363C159.119 41.0363 155.853 36.3121 155.853 27.9691C155.853 19.6765 159.119 14.9521 164.898 14.9521C170.727 14.9521 173.943 19.6262 173.943 28.1701V28.1702ZM162.234 28.0697C162.234 33.7489 162.988 36.0105 164.948 36.0105C166.757 36.0105 167.561 33.5981 167.561 28.1199C167.561 22.3401 166.807 20.0785 164.847 20.0785C162.988 20.0785 162.234 22.4407 162.234 28.0697Z" fill="#585858"/>
<path d="M193.79 28.1702C193.79 36.3121 190.474 41.0363 184.745 41.0363C178.966 41.0363 175.7 36.3121 175.7 27.9691C175.7 19.6765 178.966 14.9521 184.745 14.9521C190.574 14.9521 193.79 19.6262 193.79 28.1701V28.1702ZM182.082 28.0697C182.082 33.7489 182.836 36.0105 184.795 36.0105C186.605 36.0105 187.409 33.5981 187.409 28.1199C187.409 22.3401 186.655 20.0785 184.695 20.0785C182.836 20.0785 182.082 22.4407 182.082 28.0697Z" fill="#585858"/>
<path d="M14.7425 43.8765C6.82938 43.8765 0.357115 37.4814 0.314647 29.6208L0.314453 29.4769C0.314453 24.501 1.68204 19.7218 4.28516 15.5455C3.26235 13.995 2.71394 12.1802 2.71394 10.2775C2.71404 4.98413 7.01985 0.677734 12.3122 0.677734C15.1568 0.677734 17.8101 1.93098 19.6125 4.04378C21.9141 3.40192 24.2938 3.0776 26.7104 3.0776C26.8336 3.0776 26.9572 3.07838 27.0809 3.08021C29.3624 3.11176 31.6145 3.43781 33.7997 4.05191C35.602 1.93398 38.2574 0.677734 41.107 0.677734C46.3993 0.677734 50.7052 4.98413 50.7052 10.2775C50.7052 12.1891 50.1522 14.0107 49.1209 15.5652C51.6065 19.5432 52.9745 24.0757 53.0959 28.7818C53.103 29.0594 53.1058 29.3366 53.1046 29.6129C53.0643 37.4784 46.5921 43.8765 38.6768 43.8765H14.7425Z" fill="#474747"/>
<path d="M50.6969 28.8431C50.5682 23.847 48.892 19.2217 46.1351 15.427C47.4735 14.1196 48.3055 12.2959 48.3055 10.2769C48.3055 6.30058 45.0825 3.07715 41.1069 3.07715C38.3609 3.07715 35.9748 4.61523 34.7609 6.87655C32.341 6.00751 29.746 5.51659 27.0478 5.47934C24.0992 5.4387 21.2706 5.9306 18.6518 6.86426C17.4359 4.60953 15.0531 3.07715 12.3122 3.07715C8.33648 3.07715 5.11355 6.30058 5.11355 10.2769C5.11355 12.2872 5.93805 14.1042 7.26636 15.4104C4.40291 19.3629 2.71387 24.2222 2.71387 29.4765C2.71387 29.5202 2.71396 29.5638 2.71425 29.6076C2.74956 36.1885 8.16235 41.4762 14.7424 41.4762H38.6768C45.2594 41.4762 50.6713 36.1847 50.7048 29.6012C50.7061 29.3494 50.7034 29.0968 50.697 28.8432L50.6969 28.8431Z" fill="#585858"/>
<path d="M14.7427 40.2769C8.80359 40.2769 3.94589 35.488 3.91426 29.6018L3.91406 29.4773C3.91406 16.9056 14.1403 6.67773 26.7101 6.67773C26.8162 6.67773 26.925 6.67841 27.0316 6.67996C32.9178 6.76104 38.4861 9.10402 42.711 13.2773C46.936 17.4509 49.3463 22.9902 49.4979 28.8748C49.504 29.1162 49.5066 29.3566 49.5055 29.5963C49.4755 35.4853 44.618 40.2769 38.6772 40.2769H14.7427Z" fill="#585858"/>
<path d="M39.7989 17.7021C36.8013 14.9746 31.3422 14.9074 29.7958 17.2945C28.3338 19.5512 30.7094 23.4764 32.6794 25.4442C34.7336 27.4959 38.6842 29.7542 40.8279 28.3283C43.2282 26.7318 43.0905 20.6973 39.7989 17.7021Z" fill="#0B0B0B"/>
<path d="M13.6129 17.7021C16.6104 14.9746 22.0696 14.9074 23.616 17.2945C25.078 19.5512 22.7024 23.4764 20.7323 25.4442C18.6782 27.4959 14.7276 29.7542 12.5839 28.3283C10.1835 26.7318 10.3213 20.6973 13.6129 17.7021Z" fill="#0B0B0B"/>
<path d="M32.6808 30.425C32.9465 32.3131 29.7813 34.7922 26.7099 34.7924C23.6382 34.7926 20.4726 32.3132 20.7383 30.425C20.9923 28.6204 24.3461 27.5977 26.7095 27.5977C29.073 27.5977 32.4268 28.6203 32.6808 30.425Z" fill="#0B0B0B"/>
</g>
<defs>
<clipPath id="clip0_308_238">
<rect width="193.476" height="43.1988" fill="white" transform="translate(0.314453 0.677734)"/>
</clipPath>
</defs>
</svg>
