<svg width="34" height="35" viewBox="0 0 34 35" fill="none" xmlns="http://www.w3.org/2000/svg">
<circle cx="16.7134" cy="17.4791" r="16.6334" fill="#212121"/>
<path d="M13.5514 25.7122C11.2355 25.7122 9.07678 25.0386 7.25977 23.8764C8.80247 23.9762 11.525 23.7371 13.2184 22.1219C10.671 22.005 9.52211 20.0512 9.37226 19.2163C9.58871 19.2998 10.621 19.4 11.2038 19.1662C8.27337 18.4315 7.82382 15.8598 7.92372 15.075C8.47317 15.4591 9.40556 15.5926 9.77186 15.5592C7.04128 13.6055 8.02362 10.6665 8.50647 10.0319C10.466 12.7467 13.4028 14.2715 17.036 14.3563C16.9675 14.0558 16.9313 13.7431 16.9313 13.4218C16.9313 11.1162 18.7949 9.24707 21.0938 9.24707C22.2949 9.24707 23.3772 9.75731 24.137 10.5735C24.9396 10.3854 26.1476 9.9451 26.7381 9.56435C26.4405 10.6331 25.5138 11.5246 24.9532 11.8551C24.9487 11.8438 24.9579 11.8663 24.9532 11.8551C25.4456 11.7806 26.7779 11.5245 27.3042 11.1674C27.0439 11.7678 26.0615 12.7661 25.2552 13.325C25.4052 19.9408 20.3434 25.7122 13.5514 25.7122Z" fill="#F7C003"/>
</svg>
