<svg width="34" height="35" viewBox="0 0 34 35" fill="none" xmlns="http://www.w3.org/2000/svg">
<circle cx="17.1802" cy="17.4791" r="16.6334" fill="#212121"/>
<path d="M7.83027 13.3616C7.91764 12.0165 8.99908 10.9624 10.3454 10.8957C12.2949 10.7991 15.0813 10.6826 17.1807 10.6826C19.2802 10.6826 22.0666 10.7991 24.0161 10.8957C25.3624 10.9624 26.4439 12.0165 26.5312 13.3616C26.6149 14.6503 26.6974 16.2361 26.6974 17.4803C26.6974 18.7244 26.6149 20.3102 26.5312 21.5989C26.4439 22.944 25.3624 23.9981 24.0161 24.0648C22.0666 24.1614 19.2802 24.2779 17.1807 24.2779C15.0813 24.2779 12.2949 24.1614 10.3454 24.0648C8.99908 23.9981 7.91764 22.944 7.83027 21.5989C7.74656 20.3102 7.66406 18.7244 7.66406 17.4803C7.66406 16.2361 7.74656 14.6503 7.83027 13.3616Z" fill="#F7C003"/>
<path d="M15.1406 14.7607V20.1988L20.5787 17.4798L15.1406 14.7607Z" fill="#212121"/>
</svg>
