<svg width="34" height="35" viewBox="0 0 34 35" fill="none" xmlns="http://www.w3.org/2000/svg">
<circle cx="16.98" cy="17.4791" r="16.6334" fill="#212121"/>
<path d="M23.2936 12.5163C23.2936 13.2637 22.6877 13.8697 21.9402 13.8697C21.1928 13.8697 20.5868 13.2637 20.5868 12.5163C20.5868 11.7688 21.1928 11.1629 21.9402 11.1629C22.6877 11.1629 23.2936 11.7688 23.2936 12.5163Z" fill="#F7C003"/>
<path fill-rule="evenodd" clip-rule="evenodd" d="M16.9778 21.9901C19.4693 21.9901 21.4891 19.9703 21.4891 17.4787C21.4891 14.9872 19.4693 12.9674 16.9778 12.9674C14.4862 12.9674 12.4664 14.9872 12.4664 17.4787C12.4664 19.9703 14.4862 21.9901 16.9778 21.9901ZM16.9778 20.1855C18.4727 20.1855 19.6846 18.9737 19.6846 17.4787C19.6846 15.9838 18.4727 14.7719 16.9778 14.7719C15.4828 14.7719 14.2709 15.9838 14.2709 17.4787C14.2709 18.9737 15.4828 20.1855 16.9778 20.1855Z" fill="#F7C003"/>
<path fill-rule="evenodd" clip-rule="evenodd" d="M7.95508 17.1178C7.95508 14.0859 7.95508 12.57 8.54513 11.4119C9.06415 10.3933 9.89232 9.56512 10.911 9.0461C12.069 8.45605 13.5849 8.45605 16.6168 8.45605H17.3387C20.3706 8.45605 21.8865 8.45605 23.0445 9.0461C24.0632 9.56512 24.8914 10.3933 25.4104 11.4119C26.0004 12.57 26.0004 14.0859 26.0004 17.1178V17.8396C26.0004 20.8715 26.0004 22.3875 25.4104 23.5455C24.8914 24.5642 24.0632 25.3923 23.0445 25.9114C21.8865 26.5014 20.3706 26.5014 17.3387 26.5014H16.6168C13.5849 26.5014 12.069 26.5014 10.911 25.9114C9.89232 25.3923 9.06415 24.5642 8.54513 23.5455C7.95508 22.3875 7.95508 20.8715 7.95508 17.8396V17.1178ZM16.6168 10.2606H17.3387C18.8844 10.2606 19.9352 10.262 20.7474 10.3284C21.5385 10.393 21.9431 10.5102 22.2253 10.654C22.9044 11 23.4565 11.5521 23.8025 12.2312C23.9463 12.5134 24.0635 12.918 24.1281 13.7091C24.1945 14.5213 24.1959 15.5721 24.1959 17.1178V17.8396C24.1959 19.3854 24.1945 20.4361 24.1281 21.2483C24.0635 22.0395 23.9463 22.4441 23.8025 22.7263C23.4565 23.4054 22.9044 23.9575 22.2253 24.3035C21.9431 24.4473 21.5385 24.5645 20.7474 24.6291C19.9352 24.6955 18.8844 24.6969 17.3387 24.6969H16.6168C15.0711 24.6969 14.0203 24.6955 13.2081 24.6291C12.417 24.5645 12.0124 24.4473 11.7302 24.3035C11.0511 23.9575 10.499 23.4054 10.153 22.7263C10.0092 22.4441 9.89201 22.0395 9.82738 21.2483C9.76102 20.4361 9.75961 19.3854 9.75961 17.8396V17.1178C9.75961 15.5721 9.76102 14.5213 9.82738 13.7091C9.89201 12.918 10.0092 12.5134 10.153 12.2312C10.499 11.5521 11.0511 11 11.7302 10.654C12.0124 10.5102 12.417 10.393 13.2081 10.3284C14.0203 10.262 15.0711 10.2606 16.6168 10.2606Z" fill="#F7C003"/>
</svg>
