<svg width="35" height="35" viewBox="0 0 35 35" fill="none" xmlns="http://www.w3.org/2000/svg">
<circle cx="17.5132" cy="17.4791" r="16.6334" fill="#212121"/>
<path d="M12.4258 20.0356C12.5311 19.1638 12.8886 18.6757 13.5624 18.1753C14.5266 17.4976 15.7309 17.8809 15.7309 17.8809V15.6067C16.0237 15.5993 16.3166 15.6166 16.6061 15.6586V18.5853C16.6061 18.5853 15.4022 18.2019 14.4381 18.88C13.7646 19.38 13.4063 19.8685 13.3014 20.7403C13.2981 21.2137 13.3869 21.8326 13.7961 22.3676C13.6949 22.3158 13.5918 22.2567 13.4868 22.1903C12.5855 21.5852 12.4214 20.6772 12.4258 20.0356ZM21.5788 11.4018C20.9156 10.675 20.6648 9.94124 20.5741 9.42578H21.4084C21.4084 9.42578 21.2421 10.7773 22.4545 12.1065L22.4713 12.1243C22.1445 11.9188 21.8449 11.6762 21.5788 11.4018ZM25.598 13.4622V16.33C25.598 16.33 24.5333 16.2883 23.7454 16.0879C22.6453 15.8075 21.9382 15.3776 21.9382 15.3776C21.9382 15.3776 21.4498 15.071 21.4103 15.0496V20.9716C21.4103 21.3013 21.32 22.1248 21.0447 22.8116C20.6853 23.7101 20.1306 24.2998 20.0286 24.4204C20.0286 24.4204 19.3541 25.2176 18.164 25.7544C17.0913 26.2387 16.1495 26.2264 15.868 26.2387C15.868 26.2387 14.2399 26.3032 12.7749 25.3511C12.4581 25.1412 12.1624 24.9036 11.8916 24.6411L11.8989 24.6464C13.3643 25.5985 14.992 25.534 14.992 25.534C15.2739 25.5217 16.2157 25.534 17.288 25.0497C18.477 24.5129 19.1526 23.7157 19.1526 23.7157C19.2535 23.5951 19.8107 23.0054 20.1687 22.1066C20.4432 21.4201 20.5343 20.5963 20.5343 20.2666V14.3453C20.5738 14.367 21.0618 14.6736 21.0618 14.6736C21.0618 14.6736 21.7693 15.1039 22.8694 15.3839C23.6577 15.5843 24.722 15.626 24.722 15.626V13.3788C25.0861 13.4605 25.3965 13.4825 25.598 13.4622Z" fill="#F7C003"/>
<path d="M24.7238 13.3788V15.6253C24.7238 15.6253 23.6595 15.5836 22.8713 15.3832C21.7711 15.1028 21.0637 14.6729 21.0637 14.6729C21.0637 14.6729 20.5756 14.3663 20.5361 14.3446V20.2673C20.5361 20.597 20.4458 21.4208 20.1705 22.1073C19.8111 23.0061 19.2565 23.5958 19.1545 23.7164C19.1545 23.7164 18.4795 24.5136 17.2898 25.0504C16.2175 25.5347 15.2757 25.5224 14.9938 25.5347C14.9938 25.5347 13.3661 25.5992 11.9007 24.6471L11.8934 24.6418C11.7387 24.492 11.5931 24.3339 11.4573 24.1681C10.9896 23.598 10.703 22.9238 10.631 22.7314C10.6309 22.7306 10.6309 22.7297 10.631 22.7289C10.5151 22.3946 10.2716 21.5918 10.3049 20.8143C10.3637 19.4424 10.8463 18.6003 10.9739 18.3894C11.3119 17.8141 11.7514 17.2994 12.2729 16.8682C12.7332 16.4961 13.2548 16.2001 13.8165 15.9922C14.4238 15.7481 15.074 15.6173 15.7323 15.6067V17.8809C15.7323 17.8809 14.528 17.499 13.5643 18.1753C12.8904 18.6757 12.5329 19.1638 12.4276 20.0356C12.4232 20.6772 12.5874 21.5852 13.4879 22.1907C13.5929 22.2573 13.696 22.3164 13.7972 22.368C13.9545 22.5725 14.146 22.7507 14.3639 22.8954C15.2435 23.4522 15.9806 23.4911 16.9231 23.1294C17.5516 22.8877 18.0247 22.3428 18.2441 21.739C18.3819 21.362 18.3801 20.9825 18.3801 20.59V9.42578H20.5738C20.6644 9.94124 20.9152 10.675 21.5785 11.4018C21.8445 11.6762 22.1442 11.9188 22.4709 12.1243C22.5674 12.2242 23.061 12.7179 23.6946 13.021C24.0222 13.1777 24.3676 13.2978 24.7238 13.3788Z" fill="#F7C003"/>
<path d="M13.8151 15.9921C13.2534 16.2 12.7317 16.496 12.2715 16.8681C11.7498 17.3003 11.3104 17.8161 10.9728 18.3924C10.8453 18.6027 10.3626 19.4454 10.3038 20.8173C10.2705 21.5949 10.514 22.3977 10.6299 22.7319C10.6298 22.7328 10.6298 22.7336 10.6299 22.7344C10.703 22.925 10.9886 23.5992 11.4562 24.1711C11.592 24.3369 11.7376 24.4951 11.8924 24.6449C11.3967 24.3163 10.9546 23.919 10.5805 23.4661C10.117 22.9008 9.83105 22.2337 9.75646 22.0367C9.75638 22.0353 9.75638 22.0339 9.75646 22.0325V22.0301C9.6402 21.6961 9.39597 20.893 9.42997 20.1144C9.48884 18.7425 9.97144 17.9004 10.099 17.6895C10.4365 17.1131 10.8759 16.5973 11.3977 16.1652C11.8578 15.793 12.3795 15.4969 12.9413 15.2891C13.2917 15.1498 13.6567 15.047 14.0301 14.9825C14.5927 14.8884 15.1674 14.8802 15.7327 14.9583V15.6066C15.0738 15.6169 14.4229 15.7478 13.8151 15.9921Z" fill="#F7C003"/>
<path d="M20.574 9.42574H18.3803V20.5903C18.3803 20.9828 18.3803 21.3612 18.2443 21.7393C18.0227 22.3427 17.5514 22.8876 16.9233 23.1294C15.9804 23.4924 15.2434 23.4521 14.3641 22.8953C14.1458 22.7513 13.9538 22.5737 13.7959 22.3697C14.545 22.7527 15.2156 22.746 16.0462 22.4265C16.674 22.1847 17.146 21.6398 17.3668 21.036C17.505 20.659 17.5032 20.2795 17.5032 19.8874V8.7207H20.5323C20.5323 8.7207 20.4983 8.99823 20.574 9.42574ZM24.7222 12.7575V13.3788C24.3666 13.2976 24.0218 13.1775 23.6948 13.021C23.0612 12.7179 22.5676 12.2241 22.4711 12.1243C22.5831 12.1948 22.6993 12.2589 22.8192 12.3163C23.5895 12.6849 24.3481 12.795 24.7222 12.7575Z" fill="#F7C003"/>
</svg>
