<svg width="34" height="35" viewBox="0 0 34 35" fill="none" xmlns="http://www.w3.org/2000/svg">
<circle cx="17.2466" cy="17.4791" r="16.6334" fill="#212121"/>
<path d="M12.7331 11.3075C12.7331 12.3942 11.7912 13.2752 10.6292 13.2752C9.46732 13.2752 8.52539 12.3942 8.52539 11.3075C8.52539 10.2208 9.46732 9.33984 10.6292 9.33984C11.7912 9.33984 12.7331 10.2208 12.7331 11.3075Z" fill="#F7C003"/>
<path d="M8.8131 14.7215H12.4094V25.6193H8.8131V14.7215Z" fill="#F7C003"/>
<path d="M18.1995 14.7215H14.6032V25.6193H18.1995C18.1995 25.6193 18.1995 22.1885 18.1995 20.0434C18.1995 18.7559 18.6392 17.4627 20.3933 17.4627C22.3757 17.4627 22.3638 19.1477 22.3545 20.453C22.3424 22.1592 22.3713 23.9005 22.3713 25.6193H25.9676V19.8677C25.9372 16.1951 24.9802 14.5028 21.8318 14.5028C19.9622 14.5028 18.8032 15.3517 18.1995 16.1196V14.7215Z" fill="#F7C003"/>
</svg>
