<svg width="167" height="44" viewBox="0 0 167 44" fill="none" xmlns="http://www.w3.org/2000/svg">
<g clip-path="url(#clip0_308_237)">
<path d="M24.2097 0.677734C17.7144 0.677734 12.43 5.96287 12.43 12.4592C12.43 15.4744 13.5697 18.2275 15.4391 20.3135H8.50442V24.2407H12.43C16.7601 24.2407 20.2831 27.7641 20.2831 32.095C20.2831 36.4258 16.7601 39.9493 12.43 39.9493C8.09986 39.9493 4.57693 36.4258 4.57693 32.095H4.57789V0.677734H0.65135V32.0951H0.650391C0.650391 38.5914 5.93469 43.8765 12.43 43.8765C18.9253 43.8765 24.2097 38.5914 24.2097 32.0951C24.2097 29.0799 23.07 26.3268 21.2006 24.2408H28.1372V20.3136H24.2097C19.8796 20.3136 16.3566 16.7902 16.3566 12.4593C16.3566 8.12837 19.8796 4.60498 24.2097 4.60498C28.5399 4.60498 32.0628 8.12837 32.0628 12.4593H32.0637V43.8765H35.9903V12.4592H35.9893C35.9893 5.96287 30.7049 0.677734 24.2097 0.677734Z" fill="#585858"/>
<path d="M75.3248 19.9896H59.0885V7.87793H55.1865V36.1388H59.0885V23.1747H75.3248V36.1388H79.2268V7.87793H75.3248V19.9896Z" fill="#585858"/>
<path d="M92.7266 15.9972C87.0753 15.9972 82.8145 20.4382 82.8145 26.6286C82.8145 32.7292 87.0753 36.6769 92.906 36.6769C97.7948 36.6769 101.069 33.9853 102.056 29.5443L98.9609 29.1856C98.1535 32.191 96.225 33.7609 92.9508 33.7609C89.4524 33.7609 86.7165 31.0695 86.537 27.2565H102.145V25.7762C102.145 20.4381 98.9609 15.9971 92.7265 15.9971L92.7266 15.9972ZM86.6269 24.8342C87.0754 21.6045 89.1835 18.8231 92.7266 18.8231C96.4493 18.8231 98.1986 21.694 98.3331 24.8342H86.6269Z" fill="#585858"/>
<path d="M109.277 7.87793H105.555V36.1388H109.277V7.87793Z" fill="#585858"/>
<path d="M117.664 7.87793H113.807V12.0948H117.664V7.87793Z" fill="#585858"/>
<path d="M117.619 16.5352H113.896V36.1384H117.619V16.5352Z" fill="#585858"/>
<path d="M132.465 15.9971C129.55 15.9971 126.904 17.6568 125.962 20.0343V16.5352H122.239V36.1385H125.962V24.8791C125.962 21.2905 128.294 18.9576 131.254 18.9576C134.349 18.9576 135.919 21.0213 135.919 24.2957V36.1385H139.642V23.9817C139.642 19.4061 137.578 15.9971 132.465 15.9971Z" fill="#585858"/>
<path d="M152.692 15.9972C147.041 15.9972 142.78 20.4382 142.78 26.6286C142.78 32.7292 147.041 36.6769 152.872 36.6769C157.761 36.6769 161.035 33.9853 162.022 29.5443L158.927 29.1856C158.119 32.191 156.191 33.7609 152.917 33.7609C149.418 33.7609 146.682 31.0695 146.503 27.2565H162.111V25.7762C162.111 20.4381 158.927 15.9971 152.692 15.9971V15.9972ZM146.593 24.8342C147.041 21.6045 149.149 18.8231 152.692 18.8231C156.415 18.8231 158.164 21.694 158.299 24.8342H146.593Z" fill="#585858"/>
<path d="M164.219 7.87793C163.057 7.87793 162.111 8.82369 162.111 9.98632C162.111 11.1489 163.057 12.0947 164.219 12.0947C165.382 12.0947 166.327 11.1489 166.327 9.98632C166.327 8.82369 165.382 7.87793 164.219 7.87793ZM164.219 11.9322C163.147 11.9322 162.274 11.0593 162.274 9.98632C162.274 8.91336 163.147 8.04045 164.219 8.04045C165.292 8.04045 166.165 8.91336 166.165 9.98632C166.165 11.0593 165.292 11.9322 164.219 11.9322Z" fill="#585858"/>
<path d="M164.637 10.1042C164.962 10.0662 165.241 9.85094 165.241 9.44151C165.241 8.96872 164.916 8.65625 164.241 8.65625H163.16V11.3158H163.519V10.2436H164.27C164.633 10.2436 164.772 10.442 164.789 10.7375C164.81 11.0498 164.848 11.244 164.899 11.3159H165.279C165.19 11.2188 165.178 11.0667 165.144 10.6784C165.119 10.3661 164.962 10.1676 164.638 10.1042H164.637ZM164.22 9.95221H163.519V8.95595H164.22C164.671 8.95595 164.874 9.15016 164.874 9.45408C164.874 9.78345 164.671 9.95221 164.22 9.95221Z" fill="#585858"/>
</g>
<defs>
<clipPath id="clip0_308_237">
<rect width="165.677" height="43.1988" fill="white" transform="translate(0.650391 0.677734)"/>
</clipPath>
</defs>
</svg>
