<svg width="204" height="44" viewBox="0 0 204 44" fill="none" xmlns="http://www.w3.org/2000/svg">
<g clip-path="url(#clip0_308_239)">
<path d="M25.2188 0.677734V6.98601L37.5137 25.4312L49.8086 6.98601V37.728H25.2188V43.8765H55.9559V0.677734H25.2188Z" fill="#585858"/>
<path d="M0.628906 6.98535V37.7274H25.2187V6.98535L12.9238 25.4305L0.628906 6.98535Z" fill="#585858"/>
<path d="M105.622 19.2033C102.947 19.2033 100.679 20.1158 98.8182 21.94C96.9569 23.7646 96.0264 25.9777 96.0264 28.5787C96.0264 31.3404 96.9384 33.6334 98.7628 35.4579C100.587 37.3072 102.849 38.2316 105.548 38.2316C108.272 38.2316 110.571 37.3256 112.445 35.5133C114.306 33.6889 115.237 31.4265 115.237 28.7266C115.237 26.0516 114.312 23.7955 112.463 21.9585C110.59 20.1216 108.309 19.2031 105.622 19.2031V19.2033ZM109.523 32.943C108.55 33.991 107.249 34.5147 105.622 34.5147C104.007 34.5147 102.707 33.985 101.721 32.9245C100.76 31.8768 100.279 30.4528 100.279 28.6527C100.279 26.9763 100.772 25.6079 101.758 24.5475C102.744 23.4873 104.032 22.9571 105.622 22.9571C107.237 22.9571 108.537 23.4873 109.523 24.5475C110.497 25.5954 110.984 26.9947 110.984 28.7451C110.984 30.4955 110.497 31.8952 109.523 32.9429V32.943Z" fill="#585858"/>
<path d="M127.092 19.2031C125.268 19.2031 123.628 19.9244 122.174 21.3667V19.7024H117.995V37.7138H122.174V29.0224C122.174 26.7787 122.457 25.2069 123.024 24.307C123.604 23.3948 124.583 22.9385 125.964 22.9385C127.234 22.9385 128.109 23.2838 128.59 23.9742C129.083 24.6522 129.329 25.8788 129.329 27.6541V37.7139H133.508V26.6741C133.508 24.1346 133.002 22.3038 131.992 21.1819C130.821 19.8628 129.188 19.2033 127.092 19.2033L127.092 19.2031Z" fill="#585858"/>
<path d="M150.392 21.7921C148.728 20.0663 146.849 19.2031 144.753 19.2031C142.325 19.2031 140.303 20.1031 138.689 21.9029C137.074 23.703 136.267 25.9527 136.267 28.6526C136.267 31.4019 137.074 33.695 138.689 35.5317C140.316 37.3318 142.374 38.2315 144.864 38.2315C146.836 38.2315 148.679 37.4303 150.392 35.8276V37.7138H154.571V19.7024H150.392V21.7921ZM149.228 32.9244C148.278 33.9847 147.033 34.5146 145.493 34.5146C144.051 34.5146 142.855 33.9662 141.906 32.8689C140.981 31.7841 140.519 30.3788 140.519 28.6527C140.519 27.038 140.993 25.6818 141.943 24.5844C142.904 23.4996 144.1 22.9571 145.53 22.9571C147.046 22.9571 148.278 23.4934 149.228 24.5659C150.177 25.6632 150.651 27.0562 150.651 28.7451C150.651 30.434 150.177 31.8273 149.228 32.9245V32.9244Z" fill="#585858"/>
<path d="M164.374 19.666C163.783 19.9621 163.105 20.5097 162.34 21.3117V19.702H158.181V37.7141H162.34V28.3758C162.34 24.948 163.474 23.2341 165.743 23.2341C166.495 23.2341 167.265 23.5191 168.054 24.0849V19.4283C167.533 19.2781 167.021 19.2031 166.52 19.2031C165.693 19.2031 164.978 19.3575 164.374 19.666H164.374Z" fill="#585858"/>
<path d="M172.088 21.9769C170.189 23.8262 169.24 26.0946 169.24 28.782C169.24 31.4695 170.177 33.7195 172.05 35.5317C173.924 37.3318 176.254 38.2315 179.04 38.2315C180.728 38.2315 182.417 37.7938 184.106 36.9185V31.4264C183.107 32.6347 182.238 33.4484 181.499 33.8673C180.734 34.299 179.853 34.5146 178.855 34.5146C177.289 34.5146 176.001 33.9723 174.99 32.8873C173.992 31.8027 173.493 30.4158 173.493 28.7266C173.493 27.0748 174.01 25.7002 175.046 24.6028C176.081 23.5057 177.382 22.9571 178.947 22.9571C179.946 22.9571 180.814 23.179 181.554 23.6227C182.306 24.0544 183.156 24.8497 184.106 26.0083V20.4791C182.528 19.6284 180.851 19.2031 179.077 19.2031C176.315 19.2031 173.986 20.1277 172.088 21.9769Z" fill="#585858"/>
<path d="M202.111 21.1819C200.891 19.8628 199.264 19.2032 197.23 19.2032C195.442 19.2032 193.809 19.8689 192.33 21.2003V6.48047H188.17V37.7139H192.33V29.004C192.33 26.785 192.619 25.2196 193.199 24.3071C193.791 23.4072 194.814 22.9571 196.268 22.9571C197.402 22.9571 198.225 23.2807 198.736 23.9278C199.248 24.5751 199.504 25.6199 199.504 27.0623V37.7138H203.664V26.6739C203.664 24.159 203.146 22.3282 202.111 21.1817L202.111 21.1819Z" fill="#585858"/>
<path d="M80.7129 27.8943L70.9135 7.0166H68.251V37.7137H72.4297V20.4604L80.6389 37.7137L89.0884 20.479V37.7137H93.2672V7.0166H90.8635L80.7129 27.8943Z" fill="#585858"/>
</g>
<defs>
<clipPath id="clip0_308_239">
<rect width="203.035" height="43.1988" fill="white" transform="translate(0.628906 0.677734)"/>
</clipPath>
</defs>
</svg>
