<svg width="205" height="44" viewBox="0 0 205 44" fill="none" xmlns="http://www.w3.org/2000/svg">
<g clip-path="url(#clip0_308_236)">
<path d="M71.3968 25.5252C71.3968 27.4594 70.8925 28.9368 69.8853 29.9582C68.8774 30.9797 67.4478 31.4903 65.5961 31.4903C63.7713 31.4903 62.3548 30.9797 61.3477 29.9582C60.3399 28.9368 59.8362 27.4594 59.8362 25.5252V7.875H54.1172V25.4843C54.1172 27.9089 54.6208 29.9582 55.6287 31.6333C56.6359 33.3083 58.0045 34.5686 59.7341 35.4125C61.4631 36.257 63.3903 36.6793 65.5143 36.6793C67.6652 36.6793 69.6197 36.2573 71.3763 35.4125C73.1329 34.5686 74.5351 33.3083 75.5838 31.6333C76.6319 29.9582 77.1567 27.9089 77.1567 25.4843V7.875H71.3968V25.5252Z" fill="#585858"/>
<path d="M95.2117 13.4319C93.7954 13.4319 92.4954 13.7114 91.3106 14.2693C90.1261 14.8278 89.1519 15.5972 88.3897 16.5778V13.7587H82.6709V36.3931H88.3897V23.8911C88.3897 22.0934 88.8456 20.7113 89.7583 19.7443C90.6703 18.7779 91.9161 18.2939 93.4959 18.2939C95.0482 18.2939 96.274 18.7779 97.1726 19.7443C98.0712 20.7115 98.5206 22.0934 98.5206 23.8911V36.3931H104.239V23.1146C104.239 20.0646 103.409 17.6878 101.748 15.9851C100.086 14.2831 97.9077 13.4316 95.2117 13.4316V13.4319Z" fill="#585858"/>
<path d="M112.573 4.36133C111.565 4.36133 110.727 4.68186 110.06 5.32164C109.393 5.96184 109.06 6.75865 109.06 7.71161C109.06 8.66458 109.393 9.46202 110.06 10.1018C110.727 10.742 111.565 11.0619 112.573 11.0619C113.581 11.0619 114.417 10.742 115.085 10.1018C115.752 9.46202 116.086 8.66544 116.086 7.71161C116.086 6.75778 115.752 5.96184 115.085 5.32164C114.417 4.68208 113.58 4.36133 112.573 4.36133Z" fill="#585858"/>
<path d="M115.392 13.7588H109.673V36.3932H115.392V13.7588Z" fill="#585858"/>
<path d="M130.711 18.2524C131.854 18.2524 132.814 18.5321 133.591 19.0901C134.367 19.6486 134.918 20.4178 135.245 21.3984H141.414C140.787 18.8652 139.555 16.8977 137.716 15.4946C135.878 14.092 133.556 13.3906 130.752 13.3906C128.573 13.3906 126.639 13.8745 124.951 14.841C123.262 15.808 121.941 17.1697 120.988 18.9265C120.035 20.6832 119.559 22.7332 119.559 25.0755C119.559 27.4177 120.035 29.4675 120.988 31.2244C121.941 32.9813 123.262 34.3435 124.951 35.3101C126.639 36.2773 128.573 36.7605 130.752 36.7605C133.529 36.7605 135.844 36.0393 137.696 34.5952C139.548 33.1519 140.787 31.2041 141.414 28.7528H135.245C134.536 30.8231 133.025 31.8577 130.711 31.8577C129.077 31.8577 127.783 31.2652 126.83 30.0803C125.876 28.8955 125.4 27.2274 125.4 25.0755C125.4 22.8967 125.876 21.2146 126.83 20.0296C127.783 18.8447 129.077 18.2524 130.711 18.2524H130.711Z" fill="#585858"/>
<path d="M161.756 14.841C159.985 13.8745 158.011 13.3906 155.833 13.3906C153.654 13.3906 151.679 13.8745 149.909 14.841C148.139 15.808 146.744 17.1768 145.722 18.9469C144.701 20.7178 144.19 22.7607 144.19 25.0755C144.19 27.3903 144.687 29.4336 145.681 31.2039C146.675 32.9748 148.044 34.3433 149.787 35.3099C151.529 36.2771 153.49 36.7603 155.669 36.7603C157.875 36.7603 159.87 36.2771 161.654 35.3099C163.437 34.3433 164.853 32.9748 165.902 31.2039C166.95 29.4336 167.475 27.3907 167.475 25.0755C167.475 22.7602 166.964 20.7178 165.943 18.9469C164.922 17.1768 163.526 15.808 161.756 14.841ZM160.775 28.7525C160.23 29.7606 159.502 30.5166 158.59 31.02C157.677 31.5244 156.704 31.7758 155.669 31.7758C154.035 31.7758 152.68 31.1976 151.604 30.0394C150.528 28.8819 149.991 27.2274 149.991 25.0755C149.991 22.9235 150.542 21.2692 151.645 20.1115C152.748 18.9542 154.117 18.3751 155.751 18.3751C157.384 18.3751 158.767 18.9542 159.897 20.1115C161.027 21.2694 161.592 22.9242 161.592 25.0755C161.592 26.5196 161.32 27.7451 160.775 28.7525Z" fill="#585858"/>
<path d="M174.583 4.36133C173.575 4.36133 172.737 4.68186 172.07 5.32164C171.403 5.96184 171.069 6.75865 171.069 7.71161C171.069 8.66458 171.403 9.46202 172.07 10.1018C172.737 10.742 173.574 11.0619 174.583 11.0619C175.591 11.0619 176.427 10.742 177.095 10.1018C177.762 9.46202 178.096 8.66544 178.096 7.71161C178.096 6.75778 177.762 5.96184 177.095 5.32164C176.427 4.68208 175.59 4.36133 174.583 4.36133Z" fill="#585858"/>
<path d="M177.401 13.7588H171.683V36.3932H177.401V13.7588Z" fill="#585858"/>
<path d="M202.149 15.9851C200.488 14.2831 198.309 13.4316 195.613 13.4316C194.197 13.4316 192.897 13.7111 191.712 14.269C190.527 14.8276 189.553 15.597 188.791 16.5776V13.7584H183.072V36.3929H188.791V23.8909C188.791 22.0932 189.247 20.7111 190.16 19.7441C191.072 18.7777 192.318 18.2937 193.897 18.2937C195.45 18.2937 196.675 18.7777 197.574 19.7441C198.473 20.7113 198.922 22.0932 198.922 23.8909V36.3929H204.641V23.1144C204.641 20.0644 203.81 17.6876 202.149 15.9849V15.9851Z" fill="#585858"/>
<path d="M21.723 0.677734C16.1389 0.677734 11.05 2.7975 7.21627 6.2763L17.1915 10.8809C18.0426 11.2737 18.969 11.4772 19.9065 11.4772H30.3614C31.5541 11.4772 32.521 12.4442 32.521 13.6372V30.9167C32.521 32.1096 31.5541 33.0766 30.3614 33.0766H13.0846C11.8918 33.0766 10.925 32.1096 10.925 30.9167V20.4602C10.925 19.5226 10.7215 18.5962 10.3287 17.7447L5.72464 7.76838C2.24638 11.6025 0.126953 16.6922 0.126953 22.2771C0.126953 34.2063 9.7957 43.8765 21.723 43.8765C33.6502 43.8765 43.319 34.2063 43.319 22.2771C43.319 10.348 33.6502 0.677734 21.723 0.677734Z" fill="#585858"/>
</g>
<defs>
<clipPath id="clip0_308_236">
<rect width="204.514" height="43.1988" fill="white" transform="translate(0.126953 0.677734)"/>
</clipPath>
</defs>
</svg>
