<svg width="187" height="44" viewBox="0 0 187 44" fill="none" xmlns="http://www.w3.org/2000/svg">
<g clip-path="url(#clip0_308_240)">
<path d="M73.7108 31.1336V36.3428H52.0244V32.2308L65.0905 17.5052H52.0244V12.2979H73.3313V16.6069L60.7496 31.1336H73.7108Z" fill="#585858"/>
<path d="M98.7012 20.8203V36.3501H92.2676V33.0352H92.1266C91.3206 34.3131 88.955 36.5869 84.2671 36.5869C79.5792 36.5869 76.3154 33.9353 76.3154 29.6733C76.3154 25.0335 79.8178 21.4836 89.9001 21.4836H92.2676V20.7733C92.2676 18.1687 90.6591 16.607 88.055 16.607C85.4978 16.607 83.9364 17.9789 83.7466 20.0629H77.4034C77.4973 14.6658 81.8527 11.6816 88.055 11.6816C94.9187 11.6816 98.7012 15.0472 98.7012 20.8203ZM92.2676 27.2585V25.5541H89.9489C84.5038 25.5541 82.9424 27.2115 82.9424 29.1997C82.9424 30.953 84.3629 32.0375 86.593 32.0375C89.7592 32.0375 92.2676 29.9101 92.2676 27.2585Z" fill="#585858"/>
<path d="M127.11 21.578V36.3506H120.434V23.0005C120.434 19.6386 118.777 17.5546 116.174 17.5546C112.813 17.5546 110.492 19.8754 110.492 24.1356V36.3524H103.818V12.2984H110.492V16.7485C112.009 13.2925 114.754 11.6875 118.209 11.6875C123.938 11.6821 127.11 15.7073 127.11 21.578Z" fill="#585858"/>
<path d="M140.129 17.5058V27.4017C140.129 29.8635 141.596 31.1974 144.011 31.1974C145.004 31.1974 146.235 31.0546 147.939 30.1545V35.7884C146.423 36.5946 144.531 36.8313 142.968 36.8313C137.241 36.8313 133.453 33.4694 133.453 28.3561V17.5112H129.145V12.2984H129.24C132.132 12.2984 133.453 11.1145 133.453 8.32195V5.10645H140.129V12.3038H148.413V17.5058H140.129Z" fill="#585858"/>
<path d="M154.724 0.677734H154.941C155.986 0.677734 156.988 1.09287 157.727 1.83182C158.465 2.57077 158.88 3.57301 158.88 4.61804C158.88 5.13541 158.779 5.6477 158.58 6.12566C158.382 6.60362 158.092 7.03787 157.726 7.40362C157.361 7.76937 156.926 8.05944 156.448 8.25726C155.97 8.45508 155.458 8.55678 154.941 8.55654H154.724C154.207 8.55678 153.694 8.45508 153.216 8.25726C152.738 8.05944 152.304 7.76937 151.938 7.40362C151.572 7.03787 151.282 6.60362 151.084 6.12566C150.886 5.6477 150.784 5.13541 150.784 4.61804C150.784 3.57301 151.199 2.57077 151.938 1.83182C152.677 1.09287 153.679 0.677734 154.724 0.677734ZM151.494 12.298H158.158V36.3502H151.489L151.494 12.298Z" fill="#585858"/>
<path d="M174.401 36.9647C166.733 36.9647 161.951 31.8043 161.951 24.2762C161.951 16.842 166.733 11.6816 174.401 11.6816C180.887 11.6816 185.383 15.4231 186.047 21.442H179.467C178.993 18.6965 177.289 16.898 174.307 16.898C170.566 16.898 168.388 19.8804 168.388 24.2834C168.388 28.6864 170.566 31.6688 174.307 31.6688C177.432 31.6688 179.136 29.7763 179.609 26.7886H186.141C185.627 32.9412 181.124 36.9647 174.401 36.9647Z" fill="#585858"/>
<path d="M34.9066 8.33945C35.5097 8.95557 35.9648 9.70088 36.2372 10.5189C36.5097 11.337 36.5925 12.2063 36.4793 13.0611C36.3661 13.9159 36.0599 14.7337 35.5839 15.4527C35.1079 16.1716 34.4746 16.7727 33.7319 17.2106C28.378 20.3588 22.1304 21.6398 15.9697 20.8528C9.80909 20.0657 4.08412 17.255 -0.306641 12.8618L7.61792 4.77148C10.2419 7.39518 13.6592 9.07801 17.3384 9.5582C21.0176 10.0384 24.7522 9.28903 27.9615 7.42667C29.054 6.78284 30.3301 6.52212 31.5875 6.68583C32.8449 6.84954 34.0117 7.42831 34.903 8.33041L34.9066 8.33945Z" fill="#585858"/>
<path d="M34.8721 8.30361C33.8101 7.24192 32.3699 6.64551 30.8683 6.64551C29.3667 6.64551 27.9265 7.24192 26.8645 8.30361L2.82874 32.3431C1.76721 33.4053 1.1709 34.8457 1.1709 36.3476C1.1709 37.8494 1.76721 39.2898 2.82874 40.3521C3.35439 40.8782 3.97855 41.2956 4.66555 41.5803C5.35255 41.8651 6.08892 42.0116 6.83258 42.0116C7.57625 42.0116 8.31262 41.8651 8.99962 41.5803C9.68662 41.2956 10.3108 40.8782 10.8364 40.3521L34.8721 16.3126C35.3982 15.7868 35.8155 15.1626 36.1002 14.4755C36.3849 13.7884 36.5315 13.0519 36.5315 12.3081C36.5315 11.5643 36.3849 10.8278 36.1002 10.1407C35.8155 9.4536 35.3982 8.82934 34.8721 8.30361Z" fill="#585858"/>
<path d="M2.8003 40.3064C2.1971 39.6906 1.74195 38.9455 1.46932 38.1277C1.1967 37.3098 1.11375 36.4407 1.22677 35.586C1.33979 34.7314 1.64581 33.9137 2.12164 33.1948C2.59747 32.476 3.23064 31.8749 3.97317 31.4371C9.32747 28.2894 15.575 27.0085 21.7357 27.7952C27.8965 28.582 33.6218 31.3919 38.0135 35.7841L30.0854 43.8762C27.4614 41.2525 24.044 39.5697 20.3649 39.0895C16.6857 38.6093 12.951 39.3586 9.74174 41.221C8.64803 41.8631 7.37133 42.1219 6.11395 41.9562C4.85656 41.7906 3.69041 41.2099 2.8003 40.3064Z" fill="#585858"/>
</g>
<defs>
<clipPath id="clip0_308_240">
<rect width="186.447" height="43.1988" fill="white" transform="translate(-0.304688 0.677734)"/>
</clipPath>
</defs>
</svg>
